<svg width="32" height="32" viewBox="0 0 32 32" fill="none" xmlns="http://www.w3.org/2000/svg">
<g clip-path="url(#clip0_32_76)">
<path d="M0 13.9869V9.96071L1.22714 9.18856L3.53982 7.72148L5.80531 6.32059L8.10619 4.86454L10.3599 3.45261L12.5782 2.06274L15.7876 0.0551607C15.8513 0.0179948 15.9249 -0.00170898 16 -0.00170898C16.0751 -0.00170898 16.1487 0.0179948 16.2124 0.0551607L16.8968 0.485357L18.5133 1.51121C19.5516 2.17305 20.5939 2.82754 21.6401 3.47467L23.2684 4.50052L26.5015 6.53017L29.5929 8.47157L31.764 9.83937C31.8479 9.89986 31.9268 9.96624 32 10.0379V14.009H29.9233V25.9H29.7345L12.3894 25.8669H2.33628C2.25696 25.8605 2.17814 25.8495 2.10029 25.8339V13.9869H0ZM26.4779 21.8187V21.7415V11.8359C26.4743 11.807 26.4641 11.7792 26.4477 11.7544C26.4314 11.7296 26.4095 11.7085 26.3835 11.6925L23.3628 9.79525L18.5251 6.76181L16.0472 5.23958C16.0212 5.21787 15.9876 5.20587 15.9528 5.20587C15.918 5.20587 15.8844 5.21787 15.8584 5.23958L14.9381 5.82421L12.7552 7.19201L10.7375 8.47157L8.66077 9.77319L5.68732 11.6374C5.64932 11.6564 5.61798 11.6852 5.59705 11.7204C5.57613 11.7556 5.5665 11.7957 5.56932 11.8359V21.8187H26.4779Z" fill="black"/>
<path d="M10.5132 19.9656V15.7078H21.5339V19.9656H10.5132ZM10.4896 10.7881H21.4985V15.0349H10.5014L10.4896 10.7881Z" fill="black"/>
<path d="M2.52502 28.79V26.5508H4.25954V26.8155H2.84361V27.4994H4.17694V27.7642H2.83181V28.5363H4.30674V28.79H2.52502ZM6.57222 28.5584C6.70092 28.6397 6.83956 28.7064 6.9852 28.7569L6.89081 28.9775C6.70155 28.9054 6.52618 28.8048 6.37163 28.6797C6.19181 28.775 5.98836 28.8244 5.78166 28.8231C5.57356 28.8233 5.36944 28.7698 5.19169 28.6687C5.01881 28.5715 4.87953 28.4298 4.79051 28.2605C4.69025 28.0759 4.63772 27.8719 4.63712 27.6649C4.63675 27.4542 4.68929 27.2464 4.79051 27.0582C4.87584 26.8838 5.01571 26.7376 5.19169 26.639C5.37152 26.5437 5.57496 26.4943 5.78166 26.4956C5.9936 26.4946 6.20177 26.548 6.38343 26.6501C6.56156 26.7445 6.70538 26.8867 6.79641 27.0582C6.89397 27.2472 6.94248 27.4551 6.938 27.6649C6.93917 27.8343 6.90718 28.0026 6.84361 28.1613C6.78499 28.3072 6.69228 28.4391 6.57222 28.5473V28.5584ZM5.86426 28.1723C6.03738 28.2116 6.19874 28.287 6.33623 28.3929C6.51716 28.2311 6.60762 27.9921 6.60762 27.6759C6.61456 27.5096 6.58233 27.3439 6.51323 27.1906C6.44953 27.0627 6.34692 26.9553 6.21824 26.8817C6.06037 26.791 5.87448 26.7526 5.69043 26.7726C5.50639 26.7926 5.33489 26.8699 5.20349 26.992C5.04616 27.1391 4.9675 27.3671 4.9675 27.6759C4.95338 27.9165 5.03776 28.1532 5.20349 28.3378C5.2771 28.4158 5.368 28.4779 5.46988 28.5198C5.57176 28.5618 5.68218 28.5824 5.79346 28.5804C5.90335 28.5787 6.01172 28.5562 6.11204 28.5142C6.01391 28.4573 5.9062 28.4163 5.79346 28.3929L5.86426 28.1723ZM8.9321 26.5508H9.25069V27.8414C9.25914 28.0284 9.23115 28.2153 9.16809 28.3929C9.10763 28.5227 9.00424 28.631 8.87311 28.7018C8.70492 28.793 8.51294 28.8389 8.31853 28.8341C8.12675 28.841 7.93616 28.8031 7.76396 28.7238C7.62405 28.6549 7.5152 28.5415 7.45718 28.4039C7.38906 28.2272 7.35704 28.0402 7.36278 27.8524V26.5508H7.68137V27.8414C7.67284 27.9906 7.69282 28.14 7.74036 28.2826C7.77856 28.3725 7.84964 28.4467 7.94095 28.4922C8.04955 28.5468 8.17171 28.5734 8.29494 28.5694C8.53092 28.5694 8.69612 28.5179 8.79051 28.415C8.88491 28.312 8.9321 28.1208 8.9321 27.8414V26.5508ZM9.52207 28.79L10.4424 26.5508H10.7846L11.764 28.79H11.41L11.1268 28.1171H10.1238L9.85246 28.79H9.52207ZM10.2064 27.8745H11.0324L10.7728 27.2567C10.6941 27.0656 10.6391 26.9074 10.6076 26.7824C10.577 26.9325 10.5336 27.08 10.4778 27.2237L10.2064 27.8745ZM11.9999 28.79V26.5508H12.3185V28.5363H13.4985V28.79H11.9999ZM14.702 28.79V26.5508H15.0206V27.4774H16.2595V26.5508H16.5781V28.79H16.2595V27.7311H15.0206V28.79H14.702ZM17.0147 27.698C17.0147 27.3303 17.1209 27.0398 17.3333 26.8266C17.4388 26.7215 17.567 26.6386 17.7094 26.5834C17.8518 26.5283 18.0052 26.5021 18.1592 26.5067C18.3673 26.5071 18.5712 26.5605 18.7492 26.6611C18.9269 26.7561 19.0706 26.8981 19.1622 27.0692C19.2593 27.2584 19.3078 27.4661 19.3038 27.6759C19.3087 27.8858 19.2602 28.0937 19.1622 28.2826C19.0693 28.4565 18.9208 28.5992 18.7374 28.6907C18.5574 28.7855 18.3541 28.835 18.1474 28.8341C17.9393 28.8343 17.7352 28.7809 17.5575 28.6797C17.379 28.5807 17.2354 28.435 17.1445 28.2605C17.0574 28.0882 17.0131 27.8996 17.0147 27.709V27.698ZM17.3333 27.698C17.3247 27.8156 17.3412 27.9337 17.3817 28.0454C17.4222 28.1571 17.4859 28.2602 17.5693 28.3488C17.6453 28.4235 17.7368 28.4831 17.8383 28.5237C17.9397 28.5644 18.0489 28.5854 18.1592 28.5854C18.2696 28.5854 18.3788 28.5644 18.4802 28.5237C18.5816 28.4831 18.6732 28.4235 18.7492 28.3488C18.9178 28.1614 19.0024 27.9203 18.9852 27.6759C18.988 27.5088 18.9518 27.3432 18.879 27.1906C18.8159 27.0624 18.7132 26.9548 18.584 26.8817C18.4565 26.808 18.3092 26.7698 18.1592 26.7714C18.0521 26.7708 17.9458 26.79 17.8466 26.8278C17.7474 26.8657 17.6572 26.9215 17.5811 26.992C17.4237 27.1317 17.3451 27.3707 17.3451 27.709L17.3333 27.698ZM21.2861 26.5508H21.6047V27.8414C21.6131 28.0284 21.5851 28.2153 21.5221 28.3929C21.4616 28.5227 21.3582 28.631 21.2271 28.7018C21.0589 28.793 20.8669 28.8389 20.6725 28.8341C20.4807 28.841 20.2901 28.8031 20.1179 28.7238C19.978 28.6549 19.8692 28.5415 19.8112 28.4039C19.743 28.2272 19.711 28.0402 19.7168 27.8524V26.5508H20.0353V27.8414C20.0268 27.9906 20.0468 28.14 20.0943 28.2826C20.1325 28.3725 20.2036 28.4467 20.2949 28.4922C20.4035 28.5468 20.5257 28.5734 20.6489 28.5694C20.877 28.5694 21.0422 28.5179 21.1445 28.415C21.2468 28.312 21.294 28.1208 21.2861 27.8414V26.5508ZM22.0294 28.073L22.3244 28.051C22.3357 28.1495 22.3721 28.2441 22.4306 28.3267C22.4898 28.4053 22.5717 28.4665 22.6666 28.5032C22.7823 28.5487 22.9069 28.5712 23.0324 28.5694C23.1413 28.5695 23.2493 28.5508 23.351 28.5142C23.434 28.4903 23.5078 28.4443 23.5634 28.3819C23.6093 28.3246 23.6342 28.2549 23.6342 28.1833C23.6352 28.1149 23.6101 28.0484 23.5634 27.9958C23.5065 27.9347 23.4332 27.889 23.351 27.8634C23.2115 27.8198 23.0698 27.7829 22.9262 27.7531C22.764 27.7259 22.6057 27.6815 22.4542 27.6208C22.352 27.5693 22.2664 27.4931 22.2064 27.4001C22.1533 27.3207 22.1247 27.2291 22.1238 27.1354C22.1185 27.0187 22.1515 26.9032 22.2182 26.8045C22.2936 26.703 22.4008 26.6259 22.525 26.5839C22.6646 26.5355 22.8129 26.513 22.9616 26.5177C23.1229 26.5136 23.2834 26.5399 23.4336 26.5949C23.5623 26.6404 23.6733 26.7212 23.7522 26.8266C23.8254 26.9319 23.8662 27.054 23.8702 27.1795L23.5634 27.2016C23.5597 27.1407 23.5432 27.0812 23.5149 27.0263C23.4865 26.9714 23.4469 26.9222 23.3982 26.8817C23.2747 26.7997 23.1244 26.7607 22.9734 26.7714C22.8265 26.765 22.6815 26.8037 22.5604 26.8817C22.5207 26.9062 22.4873 26.9388 22.4628 26.977C22.4383 27.0152 22.4233 27.058 22.4188 27.1023C22.416 27.1417 22.4231 27.1812 22.4395 27.2176C22.4559 27.2539 22.4811 27.2862 22.5132 27.3119C22.5762 27.3634 22.7335 27.4149 22.9852 27.4663C23.1703 27.4989 23.352 27.5469 23.528 27.6097C23.651 27.6592 23.7571 27.7394 23.8348 27.8414C23.9048 27.9351 23.9419 28.0469 23.941 28.1613C23.9371 28.28 23.8961 28.3951 23.823 28.4922C23.7491 28.6027 23.6426 28.6909 23.5162 28.7459C23.3678 28.8076 23.2066 28.8377 23.0442 28.8341C22.8588 28.8391 22.6742 28.8091 22.5014 28.7459C22.3576 28.693 22.2342 28.6007 22.1474 28.4812C22.0677 28.3583 22.0268 28.2168 22.0294 28.073ZM24.4247 28.79V26.5508H24.7433V28.79H24.4247ZM25.2979 28.79V26.5508H25.6283L26.879 28.3157V26.5508H27.1858V28.79H26.8672L25.6047 27.0251V28.79H25.2979ZM28.8377 27.9076V27.6539H29.8643V28.4812C29.7188 28.5926 29.5556 28.6819 29.3805 28.7459C29.2148 28.8052 29.0387 28.8351 28.8613 28.8341C28.6396 28.8353 28.421 28.7861 28.2241 28.6907C28.0363 28.601 27.8836 28.4582 27.7876 28.2826C27.6901 28.0975 27.6416 27.8932 27.646 27.6869C27.6418 27.4736 27.6903 27.2622 27.7876 27.0692C27.8771 26.8903 28.0261 26.7433 28.2123 26.6501C28.406 26.5586 28.6208 26.5132 28.8377 26.5177C28.9989 26.5148 29.1592 26.541 29.3097 26.5949C29.4387 26.6398 29.5527 26.716 29.6401 26.8155C29.7296 26.9231 29.794 27.0471 29.8289 27.1795L29.5339 27.2567C29.509 27.1582 29.465 27.0647 29.4041 26.981C29.3413 26.911 29.2599 26.8577 29.1681 26.8266C29.0631 26.7875 28.9507 26.7688 28.8377 26.7714C28.7131 26.7679 28.589 26.7866 28.4719 26.8266C28.3732 26.8628 28.2845 26.9194 28.2123 26.992C28.1481 27.0568 28.0962 27.1314 28.0589 27.2126C27.9957 27.356 27.9636 27.5098 27.9646 27.6649C27.962 27.8367 28.0024 28.0067 28.0825 28.1613C28.1491 28.2944 28.2612 28.4031 28.4011 28.4701C28.5402 28.5357 28.6938 28.5697 28.8495 28.5694C28.9873 28.5682 29.1236 28.542 29.2507 28.4922C29.3582 28.4527 29.4579 28.3968 29.5457 28.3267V27.9186L28.8377 27.9076Z" fill="black"/>
<path d="M2.21827 30.6763C2.21827 30.2424 2.34413 29.9042 2.59585 29.6615C2.71949 29.5385 2.86969 29.4414 3.0365 29.3767C3.20331 29.3121 3.38291 29.2813 3.5634 29.2864C3.80831 29.2849 4.04902 29.346 4.25956 29.4629C4.46451 29.5778 4.62868 29.7466 4.73154 29.9483C4.84293 30.165 4.89945 30.4028 4.89673 30.6432C4.9004 30.8921 4.83967 31.138 4.71974 31.3602C4.61674 31.5589 4.45233 31.7241 4.24777 31.8345C4.03519 31.9457 3.79514 32.0027 3.5516 32C3.30254 32.0047 3.05711 31.9435 2.84364 31.8235C2.63913 31.7081 2.4751 31.5394 2.37166 31.3381C2.26643 31.1316 2.21392 30.905 2.21827 30.6763ZM2.59585 30.6763C2.57789 30.9499 2.67532 31.2192 2.86723 31.4264C2.95349 31.5155 3.05924 31.5863 3.17732 31.6339C3.2954 31.6815 3.42305 31.7047 3.5516 31.7022C3.68122 31.7077 3.81059 31.687 3.93078 31.6413C4.05097 31.5956 4.15912 31.526 4.24777 31.4374C4.42869 31.2536 4.51915 30.9962 4.51915 30.6653C4.5235 30.472 4.48325 30.2801 4.40116 30.1027C4.33051 29.9481 4.21115 29.8173 4.05898 29.7277C3.91064 29.6403 3.73871 29.5944 3.5634 29.5953C3.43696 29.5926 3.31123 29.6136 3.19367 29.6572C3.07611 29.7008 2.96911 29.766 2.87903 29.849C2.69024 30.0181 2.59585 30.3013 2.59585 30.6984V30.6763ZM5.38051 31.9559V29.3306H6.44246C6.58085 29.3311 6.71896 29.3422 6.85543 29.3637C6.98072 29.3754 7.10162 29.4131 7.20942 29.474C7.30816 29.5418 7.38558 29.6333 7.43361 29.7387C7.50718 29.8878 7.53296 30.0536 7.50783 30.2161C7.48271 30.3786 7.40774 30.5308 7.29201 30.6542C7.13469 30.8087 6.85937 30.8859 6.46605 30.8859H5.74629V31.9559H5.38051ZM5.74629 30.577H6.46605C6.70991 30.577 6.88297 30.5366 6.98523 30.4557C7.03738 30.4113 7.07823 30.3566 7.10478 30.2955C7.13132 30.2344 7.14289 30.1685 7.13862 30.1027C7.14118 30.0001 7.10806 29.8994 7.04423 29.8159C6.98794 29.7396 6.90418 29.6848 6.80824 29.6615C6.6915 29.6417 6.57276 29.6343 6.45426 29.6394H5.74629V30.577ZM7.98818 31.9559V29.3306H9.05013C9.19246 29.3305 9.33455 29.3416 9.4749 29.3637C9.60018 29.3754 9.72109 29.4131 9.82889 29.474C9.92329 29.5433 9.99654 29.6346 10.0413 29.7387C10.1149 29.8878 10.1406 30.0536 10.1155 30.2161C10.0904 30.3786 10.0154 30.5308 9.89968 30.6542C9.74236 30.8087 9.46704 30.8859 9.07372 30.8859H8.36576V31.9559H7.98818ZM8.35396 30.577H9.08552C9.32151 30.577 9.49064 30.5366 9.5929 30.4557C9.64505 30.4113 9.6859 30.3566 9.71245 30.2955C9.73899 30.2344 9.75056 30.1685 9.74629 30.1027C9.74885 30.0001 9.71573 29.8994 9.6519 29.8159C9.59561 29.7396 9.51185 29.6848 9.41591 29.6615C9.30304 29.6426 9.1883 29.6352 9.07372 29.6394H8.36576L8.35396 30.577ZM10.4897 30.6763C10.4897 30.2424 10.6155 29.9042 10.8672 29.6615C10.9909 29.5385 11.1411 29.4414 11.3079 29.3767C11.4747 29.3121 11.6543 29.2813 11.8348 29.2864C12.0797 29.2849 12.3204 29.346 12.531 29.4629C12.7359 29.5778 12.9001 29.7466 13.0029 29.9483C13.1143 30.165 13.1708 30.4028 13.1681 30.6432C13.1754 30.8911 13.1188 31.1371 13.0029 31.3602C12.8937 31.5621 12.7207 31.7277 12.5074 31.8345C12.3017 31.942 12.0703 31.9989 11.8348 32C11.5857 32.0047 11.3403 31.9435 11.1268 31.8235C10.9223 31.7081 10.7583 31.5394 10.6548 31.3381C10.5455 31.1325 10.489 30.9059 10.4897 30.6763ZM10.8672 30.6763C10.8493 30.9499 10.9467 31.2192 11.1386 31.4264C11.2269 31.5149 11.3338 31.5855 11.4526 31.6338C11.5713 31.682 11.6994 31.7069 11.8289 31.7069C11.9584 31.7069 12.0865 31.682 12.2052 31.6338C12.324 31.5855 12.4308 31.5149 12.5192 31.4264C12.7001 31.2425 12.7905 30.9852 12.7905 30.6542C12.7949 30.461 12.7546 30.2691 12.6725 30.0917C12.6019 29.9371 12.4825 29.8062 12.3304 29.7166C12.182 29.6293 12.0101 29.5834 11.8348 29.5843C11.7084 29.5815 11.5826 29.6026 11.4651 29.6462C11.3475 29.6898 11.2405 29.755 11.1504 29.838C10.9616 30.0071 10.8672 30.2902 10.8672 30.6873V30.6763ZM13.6519 31.9559V29.3306H14.9026C15.0948 29.3253 15.2865 29.3514 15.469 29.4078C15.597 29.4549 15.7049 29.5402 15.7758 29.6505C15.8546 29.7697 15.8955 29.9074 15.8938 30.0476C15.9006 30.2228 15.8327 30.3934 15.705 30.5219C15.5433 30.6627 15.3353 30.7482 15.115 30.7646C15.1918 30.7996 15.2633 30.8441 15.3274 30.8969C15.4444 30.9986 15.5474 31.1135 15.6342 31.2389L16.1298 31.9559H15.6578L15.292 31.4043L15.0206 31.0513C14.9682 30.9835 14.9045 30.9239 14.8318 30.8749C14.781 30.8445 14.7252 30.8222 14.6666 30.8087C14.5968 30.7949 14.5256 30.7876 14.4543 30.7866H14.0413V31.9559H13.6519ZM14.0295 30.4888H14.82C14.9555 30.4955 15.0911 30.4806 15.2212 30.4447C15.3098 30.4132 15.3845 30.355 15.4336 30.2792C15.4824 30.2142 15.511 30.1378 15.5162 30.0586C15.5209 29.9986 15.5105 29.9385 15.4859 29.883C15.4613 29.8274 15.4232 29.778 15.3746 29.7387C15.2375 29.6482 15.0692 29.6088 14.9026 29.6284H14.0413L14.0295 30.4888ZM17.1091 31.9559V29.6394H16.2006V29.3416H18.4071V29.6505H17.4749V31.9669L17.1091 31.9559ZM20.6489 29.3416H21.0029V30.8528C21.0157 31.0653 20.9877 31.2782 20.9203 31.4815C20.8501 31.6398 20.7256 31.7718 20.5664 31.8566C20.3683 31.9595 20.1437 32.0091 19.9174 32C19.6926 32.0073 19.4695 31.9618 19.2684 31.8676C19.1088 31.7884 18.9837 31.6597 18.9144 31.5036C18.8299 31.2921 18.7898 31.0674 18.7964 30.8418V29.3416H19.174V30.8528C19.1659 31.0245 19.1898 31.1962 19.2448 31.3602C19.2886 31.4684 19.3723 31.5583 19.4808 31.6139C19.6042 31.675 19.7424 31.7054 19.882 31.7022C20.1573 31.7022 20.354 31.6433 20.472 31.5257C20.5899 31.408 20.645 31.1874 20.6371 30.8638L20.6489 29.3416ZM21.6283 31.9559V29.3306H22.0059L23.4808 31.3933V29.3306H23.8348V31.9559H23.4572L21.9823 29.8931V31.9559H21.6283ZM24.5192 31.9559V29.3306H24.8967V31.9559H24.5192ZM26.2655 31.9559V29.6394H25.3333V29.3416H27.5634V29.6505H26.6312V31.9669L26.2655 31.9559ZM28.7315 31.9559V30.8528L27.646 29.3306H28.0944L28.6489 30.1248L28.9321 30.566L29.2389 30.1027L29.7817 29.3306H30.2183L29.0973 30.8418V31.9559H28.7315Z" fill="black"/>
</g>
<defs>
<clipPath id="clip0_32_76">
<rect width="32" height="32" fill="white"/>
</clipPath>
</defs>
</svg>
