<svg width="32" height="32" viewBox="0 0 32 32" fill="none" xmlns="http://www.w3.org/2000/svg">
<path d="M30 16.08C29.9824 13.4086 29.2008 10.7981 27.7476 8.55649C26.2943 6.31493 24.2301 4.53594 21.7986 3.42953C19.3671 2.32313 16.6697 1.9355 14.025 2.31242C11.3803 2.68933 8.89868 3.81505 6.87304 5.55668C4.84739 7.2983 3.36233 9.58313 2.59316 12.1414C1.82399 14.6997 1.80283 17.4247 2.53217 19.9946C3.26152 22.5645 4.71091 24.8721 6.70926 26.645C8.70761 28.4179 11.1715 29.582 13.81 30V20H10.26V16H13.81V13C13.81 9.46997 15.9 7.51997 19.1 7.51997C20.149 7.53293 21.1954 7.62654 22.23 7.79997V11.26H20.47C20.2063 11.2221 19.9376 11.2373 19.6798 11.3046C19.4221 11.372 19.1803 11.4902 18.9689 11.6523C18.7574 11.8144 18.5805 12.0171 18.4484 12.2486C18.3164 12.48 18.2319 12.7355 18.2 13C18.1801 13.1493 18.1801 13.3006 18.2 13.45V16H22.08L21.46 20H18.19V30C21.4929 29.4645 24.4966 27.7687 26.6613 25.2173C28.826 22.6658 30.0098 19.426 30 16.08Z" fill="#1877F2"/>
</svg>
