<svg width="32" height="32" viewBox="0 0 32 32" fill="none" xmlns="http://www.w3.org/2000/svg">
<path d="M21 2H11C8.61305 2 6.32387 2.94821 4.63604 4.63604C2.94821 6.32387 2 8.61305 2 11V21C2 23.3869 2.94821 25.6761 4.63604 27.364C6.32387 29.0518 8.61305 30 11 30H21C23.3869 30 25.6761 29.0518 27.364 27.364C29.0518 25.6761 30 23.3869 30 21V11C30 8.61305 29.0518 6.32387 27.364 4.63604C25.6761 2.94821 23.3869 2 21 2ZM28 21C28 22.8565 27.2625 24.637 25.9497 25.9497C24.637 27.2625 22.8565 28 21 28H11C9.14348 28 7.36301 27.2625 6.05025 25.9497C4.7375 24.637 4 22.8565 4 21V11C4 9.14348 4.7375 7.36301 6.05025 6.05025C7.36301 4.7375 9.14348 4 11 4H21C22.8565 4 24.637 4.7375 25.9497 6.05025C27.2625 7.36301 28 9.14348 28 11V21Z" fill="#0041D9"/>
<path d="M16 9C14.6155 9 13.2622 9.41054 12.111 10.1797C10.9599 10.9489 10.0627 12.0421 9.53285 13.3212C9.00303 14.6003 8.86441 16.0078 9.13451 17.3656C9.4046 18.7235 10.0713 19.9708 11.0503 20.9497C12.0292 21.9287 13.2765 22.5954 14.6344 22.8655C15.9922 23.1356 17.3997 22.997 18.6788 22.4672C19.9579 21.9373 21.0511 21.0401 21.8203 19.889C22.5895 18.7378 23 17.3845 23 16C23 14.1435 22.2625 12.363 20.9497 11.0503C19.637 9.7375 17.8565 9 16 9ZM16 21C15.0111 21 14.0444 20.7068 13.2222 20.1573C12.3999 19.6079 11.759 18.827 11.3806 17.9134C11.0022 16.9998 10.9031 15.9945 11.0961 15.0245C11.289 14.0546 11.7652 13.1637 12.4645 12.4645C13.1637 11.7652 14.0546 11.289 15.0246 11.0961C15.9945 10.9031 16.9998 11.0022 17.9134 11.3806C18.8271 11.759 19.6079 12.3999 20.1574 13.2221C20.7068 14.0444 21 15.0111 21 16C21 17.3261 20.4732 18.5979 19.5355 19.5355C18.5979 20.4732 17.3261 21 16 21Z" fill="#0041D9"/>
<path d="M23.5 10C24.3284 10 25 9.32843 25 8.5C25 7.67157 24.3284 7 23.5 7C22.6716 7 22 7.67157 22 8.5C22 9.32843 22.6716 10 23.5 10Z" fill="#0041D9"/>
</svg>
