<svg width="80" height="18" viewBox="0 0 80 18" fill="none" xmlns="http://www.w3.org/2000/svg">
<g clip-path="url(#clip0_30_38)">
<mask id="mask0_30_38" style="mask-type:luminance" maskUnits="userSpaceOnUse" x="0" y="0" width="80" height="18">
<path d="M0.149414 0H79.8505V17.9328H0.149414V0Z" fill="white"/>
</mask>
<g mask="url(#mask0_30_38)">
<path d="M10.5033 5.48817C10.7207 5.43811 10.9482 5.52478 11.0793 5.71009L11.8836 6.83686C11.9275 6.89821 11.9592 6.96789 11.9768 7.04191C11.9945 7.11593 11.9978 7.19282 11.9866 7.26817C11.9753 7.34351 11.9498 7.41582 11.9113 7.48093C11.8729 7.54604 11.8223 7.60268 11.7626 7.64757C10.1128 8.89838 8.3253 10.5616 7.29715 11.7766C7.27252 11.805 7.29063 11.8095 7.3073 11.8027C9.1368 11.1041 13.3421 10.073 15.3673 9.78381V7.17908L15.3694 7.18057C15.3694 6.83985 15.2173 6.51258 14.9564 6.29888L14.8224 6.1883L8.44123 0.987797C8.24868 0.831387 8.01069 0.746338 7.76558 0.746338C7.52047 0.746338 7.28248 0.831387 7.08993 0.987797C7.08993 0.987797 2.43756 4.77236 0.562411 6.29888C0.301571 6.51258 0.149414 6.83686 0.149414 7.17983V9.30187C4.68151 7.05355 9.25925 5.77734 10.5033 5.48817Z" fill="#0041D9"/>
<path d="M4.43516 15.5679C4.32532 15.6157 4.20351 15.626 4.08759 15.5972C3.97167 15.5685 3.86774 15.5022 3.79103 15.408C3.47942 15.0219 3.17218 14.6321 2.8694 14.2387C2.78777 14.1327 2.74455 14.0007 2.74719 13.8654C2.74984 13.73 2.79818 13.5999 2.88389 13.4974C3.76857 12.4439 6.41392 9.49096 7.62973 8.65709C7.65654 8.63915 7.64929 8.62122 7.61958 8.62869C6.12917 9.04339 1.8072 10.6954 0.149414 11.5338V16.555C0.149414 17.1766 0.636315 17.6788 1.23987 17.6788H14.2782C14.8796 17.6788 15.3687 17.1766 15.3687 16.5565V12.5052C13.1479 12.8287 7.35077 14.3096 4.43516 15.5702V15.5679Z" fill="#0041D9"/>
<path d="M36.1982 6.9294H33.1681V17.6801H36.1982V6.9294ZM19.6342 17.6801V15.9189L26.6696 5.77199V5.56202H19.7552V2.75256H31.1959V4.51296L24.2822 14.6614V14.8706H31.3988V17.6801H19.6342ZM38.3784 17.6801V2.22803H41.3984V17.6801H38.3784ZM43.5851 17.6801V2.22803H46.605V17.6801H43.5851ZM47.9585 12.3107C47.9585 8.85717 50.2575 6.61856 53.7383 6.61856C57.2183 6.61856 59.5173 8.85717 59.5188 12.3107C59.5188 15.7837 57.1987 18.0029 53.739 18.0029C50.2792 18.0029 47.9585 15.7643 47.9585 12.3107ZM56.4858 12.3107C56.4858 10.5309 55.3453 9.27635 53.7383 9.27635C52.1312 9.27635 50.9705 10.5316 50.9705 12.3115C50.9705 14.0905 52.1109 15.3675 53.739 15.3675C55.3678 15.3675 56.4865 14.0898 56.4865 12.3115L56.4858 12.3107ZM62.6481 17.6801L59.518 6.94135H62.5865L64.7001 14.639H64.9029L66.7506 6.94135H69.7589L71.75 14.6375H71.9529L74.0244 6.93911H77.0117L73.8628 17.6778H69.9408L68.3554 10.569H68.1526L66.5875 17.6793H62.646H62.6474L62.6481 17.6801ZM78.4978 6.06339H78.3674V5.09577H78.8079C79.0289 5.09577 79.1723 5.21159 79.1723 5.38942C79.1723 5.55381 79.0376 5.66887 78.8492 5.67784H78.8318L79.1991 6.06339H79.034L78.6833 5.68456H78.4971L78.4978 6.06339ZM78.4978 5.20636V5.57547H78.8079C78.9528 5.57547 79.0419 5.50524 79.0419 5.39017C79.0419 5.27585 78.9528 5.20711 78.8079 5.20711L78.4978 5.20636Z" fill="#111116"/>
<path d="M78.7325 6.73446C78.4725 6.73618 78.2201 6.64427 78.0188 6.47458C77.8175 6.30489 77.6799 6.06806 77.6298 5.80495C77.5936 5.61855 77.6027 5.42582 77.6563 5.24394C77.7099 5.06206 77.8063 4.89669 77.937 4.76261C78.0668 4.62775 78.227 4.52822 78.4033 4.47293C78.5796 4.41764 78.7664 4.40831 78.947 4.44579C79.1648 4.4897 79.365 4.5996 79.522 4.76145C79.6789 4.9233 79.7855 5.12975 79.8281 5.35439C79.8647 5.54066 79.8559 5.73341 79.8022 5.91526C79.7486 6.0971 79.6519 6.26231 79.5209 6.39598C79.4174 6.50361 79.2943 6.58896 79.1586 6.64707C79.0229 6.70518 78.8773 6.73488 78.7304 6.73446H78.7325ZM78.7296 4.58701C78.6032 4.58669 78.478 4.61222 78.3612 4.66211C78.2445 4.712 78.1384 4.78526 78.0493 4.87767C77.937 4.99305 77.8541 5.13532 77.808 5.29178C77.762 5.44824 77.7543 5.61402 77.7855 5.77431C77.8198 5.9505 77.8998 6.11379 78.017 6.24678C78.1342 6.37977 78.2842 6.47747 78.451 6.52946C78.6178 6.58146 78.7952 6.5858 78.9642 6.54203C79.1332 6.49826 79.2875 6.40801 79.4107 6.28091C79.5456 6.14194 79.6374 5.96483 79.6745 5.77201C79.7116 5.5792 79.6925 5.37935 79.6194 5.19779C79.5463 5.01623 79.4226 4.86112 79.2639 4.75213C79.1053 4.64313 78.9188 4.58515 78.7282 4.58552L78.7296 4.58701ZM33.0609 3.88764C33.0609 2.95364 33.7362 2.26099 34.6839 2.26099C35.6309 2.26099 36.3055 2.95289 36.3055 3.88764C36.3055 4.82313 35.6309 5.51429 34.6832 5.51429C33.7362 5.51429 33.0616 4.84106 33.0609 3.88764Z" fill="#111116"/>
</g>
</g>
<defs>
<clipPath id="clip0_30_38">
<rect width="80" height="18" fill="white"/>
</clipPath>
</defs>
</svg>
