<svg width="32" height="32" viewBox="0 0 32 32" fill="none" xmlns="http://www.w3.org/2000/svg">
<path d="M27.988 9.01C26.4816 9.0111 25.0178 8.51002 23.828 7.586C22.4674 6.52966 21.5376 5.01444 21.212 3.323C21.1273 2.88699 21.0828 2.44414 21.079 2H16.619V14.492L16.613 21.335C16.613 23.165 15.451 24.715 13.84 25.261C13.289 25.4477 12.7036 25.5107 12.1255 25.4455C11.5473 25.3804 10.9907 25.1886 10.495 24.884C9.89907 24.516 9.40575 24.0034 9.06083 23.3938C8.71591 22.7842 8.53057 22.0974 8.52201 21.397C8.48801 19.084 10.312 17.198 12.567 17.198C13.012 17.198 13.44 17.273 13.84 17.408V12.767C13.4144 12.7021 12.9845 12.6693 12.554 12.669C10.086 12.669 7.77701 13.721 6.12701 15.616C4.87326 17.061 4.13155 18.8794 4.01701 20.789C3.86501 23.305 4.76301 25.697 6.50601 27.462C7.29326 28.2681 8.23426 28.9081 9.27328 29.3441C10.3123 29.78 11.4282 30.0031 12.555 30C13.6814 30.0015 14.7967 29.7778 15.8354 29.3419C16.874 28.906 17.815 28.2669 18.603 27.462C20.2075 25.8403 21.1076 23.6513 21.108 21.37L21.084 11.152C21.8504 11.7585 22.6929 12.2621 23.59 12.65C24.9817 13.2537 26.483 13.5638 28 13.561V9.01H27.988Z" fill="#0041D9"/>
</svg>
